<svg xmlns="http://www.w3.org/2000/svg" viewBox="0 0 520.72 94.38"><g id="Layer_2" data-name="Layer 2"><g id="Layer_1-2" data-name="Layer 1"><path d="M142.91,20.32a32.76,32.76,0,0,1,10.78,1.42,9.49,9.49,0,0,1,5.57,4.9q1.67,3.48,1.67,9.72t-1.6,9.72a9.07,9.07,0,0,1-5.21,4.86,28.2,28.2,0,0,1-9.79,1.38q-3.27,0-6.39-.28t-5.82-.71c-1.79-.28-3.33-.58-4.61-.89a10.38,10.38,0,0,1-2.62-.88l.21-5.4h17.6a12.88,12.88,0,0,0,4.43-.71,3.92,3.92,0,0,0,2.27-2.34,13.28,13.28,0,0,0,.68-4.75,13.62,13.62,0,0,0-.68-4.83,4.08,4.08,0,0,0-2.27-2.37,11.66,11.66,0,0,0-4.43-.68c-4.36,0-8.09,0-11.21.07s-5.23.15-6.32.29L124.11,21c2-.23,3.85-.4,5.6-.49s3.66-.16,5.71-.18S140,20.32,142.91,20.32ZM135,21V70H124.11V21Z" style="fill:#e81d30"/><path d="M194.85,48.42l-.08,5.89-15.6.07a3.53,3.53,0,0,0-2.74.92,3.66,3.66,0,0,0-.81,2.49v1.7a3.63,3.63,0,0,0,1,2.73,4.47,4.47,0,0,0,3.19,1,11.88,11.88,0,0,0,4-.78,19.68,19.68,0,0,0,4.3-2.2,18.44,18.44,0,0,0,3.76-3.34V61.4A31.41,31.41,0,0,1,190,64.07a19.09,19.09,0,0,1-3.16,3.12,18.65,18.65,0,0,1-4.47,2.59,15,15,0,0,1-5.82,1.06,14.15,14.15,0,0,1-5.75-1.13,9.35,9.35,0,0,1-4-3.34,9.54,9.54,0,0,1-1.49-5.46V57.29a8,8,0,0,1,2.84-6.53q2.84-2.34,7.8-2.34ZM185.48,34a20.88,20.88,0,0,1,7.45,1.17,8.85,8.85,0,0,1,4.65,4,15.69,15.69,0,0,1,1.59,7.7V70H190.8l-1.49-7.59-.71-1.07V46.79a4.86,4.86,0,0,0-1.17-3.62c-.78-.76-2.26-1.13-4.43-1.13q-2.7,0-6.74.17c-2.7.12-5.47.28-8.3.46l-1-7c1.7-.33,3.67-.61,5.89-.85s4.45-.44,6.67-.6S183.73,34,185.48,34Z" style="fill:#e81d30"/><path d="M215.63,34.94l1.28,7,1,.93V70H207.4v-35Zm17.1-.92-1,9.72h-2.91a20.47,20.47,0,0,0-5.18.71q-2.7.7-6.81,2.13l-.71-5.89a30,30,0,0,1,7.45-5,17.74,17.74,0,0,1,7.31-1.7Z" style="fill:#e81d30"/><path d="M261.18,34.94v6.88H234.72V35.29l6.81-.35Zm-9.79-9.72V58.78a3.57,3.57,0,0,0,.89,2.73,4.25,4.25,0,0,0,2.94.82h4.54l1.14,7.09a21.76,21.76,0,0,1-3.12.75c-1.23.21-2.46.37-3.69.49s-2.27.18-3.12.18a10.3,10.3,0,0,1-7.42-2.55,9.49,9.49,0,0,1-2.66-7.17l-.07-35.9Z" style="fill:#e81d30"/><path d="M274.24,34.94l6.67,22.7c.19.9.37,1.8.56,2.7s.36,1.8.5,2.7h1.92L280.55,70H278a3.4,3.4,0,0,1-2.13-.71,3.64,3.64,0,0,1-1.28-1.84L263,34.94Zm27.81,0L289.49,70.42a27.87,27.87,0,0,1-2.38,5.28,19.75,19.75,0,0,1-3.83,4.79,15.35,15.35,0,0,1-5.53,3.23,16.92,16.92,0,0,1-7.63.53l-.78-6a18.24,18.24,0,0,0,6.74-3.05,12.77,12.77,0,0,0,3.76-5l2.2-4.89a31.52,31.52,0,0,0,1.24-3.8c.4-1.49.75-2.78,1-3.87l6.53-22.7Z" style="fill:#e81d30"/><path d="M315.74,21V70h-7.09V21ZM338.09,40.9v5.89H315.18V40.9ZM344.48,21V70h-7.17V21Z" style="fill:#e81d30"/><path d="M370.66,34.51a22.52,22.52,0,0,1,9.75,1.78,10.42,10.42,0,0,1,5.25,5.78,29.07,29.07,0,0,1,1.6,10.61,29.37,29.37,0,0,1-1.6,10.68,10.42,10.42,0,0,1-5.25,5.78,27.57,27.57,0,0,1-19.44,0,10.61,10.61,0,0,1-5.28-5.78,28.88,28.88,0,0,1-1.63-10.68,28.59,28.59,0,0,1,1.63-10.61A10.61,10.61,0,0,1,361,36.29,22.42,22.42,0,0,1,370.66,34.51Zm0,5.54a11.77,11.77,0,0,0-5.61,1.13,6.34,6.34,0,0,0-2.91,3.87,27,27,0,0,0-.85,7.63,27.42,27.42,0,0,0,.85,7.66,6.2,6.2,0,0,0,2.91,3.87,12,12,0,0,0,5.61,1.1,12.26,12.26,0,0,0,5.64-1.1,6.14,6.14,0,0,0,2.94-3.87,27,27,0,0,0,.86-7.66,26.62,26.62,0,0,0-.86-7.63,6.28,6.28,0,0,0-2.94-3.87A12,12,0,0,0,370.66,40.05Z" style="fill:#e81d30"/><path d="M408.12,34.51c1.51,0,3.15.05,4.9.15s3.48.21,5.21.35,3.3.33,4.72.57l-.5,4.82-6.63-.25q-3.3-.1-6.56-.1a36.43,36.43,0,0,0-4.9.14,4,4,0,0,0-2.55,1.06,4.24,4.24,0,0,0-.79,2.91c0,1.66.42,2.75,1.25,3.27A12.43,12.43,0,0,0,406,48.78l9.86,2.27A12.9,12.9,0,0,1,422,54.17q2,2.05,2,6.53,0,4.24-1.59,6.42A8.06,8.06,0,0,1,417.48,70a40.11,40.11,0,0,1-8.44.74c-1.27,0-3.18,0-5.71-.14a64.63,64.63,0,0,1-8.34-.92l.5-4.76c1.09,0,2.27.1,3.55.14s2.62.08,4,.08h4.4a44,44,0,0,0,6-.32,5.16,5.16,0,0,0,3-1.28,4.11,4.11,0,0,0,.88-2.87c0-1.57-.48-2.62-1.45-3.16A14.83,14.83,0,0,0,412,56.15l-9.72-2.27a13.39,13.39,0,0,1-4.72-2,6.9,6.9,0,0,1-2.48-3.12,12.79,12.79,0,0,1-.75-4.72A10.81,10.81,0,0,1,395.77,38a7.19,7.19,0,0,1,4.44-2.84A32.28,32.28,0,0,1,408.12,34.51Z" style="fill:#e81d30"/><path d="M453,35.37v5.1H429.05V35.72l6.81-.35ZM442.18,25.22V60.13a4.78,4.78,0,0,0,1,3.44,4.92,4.92,0,0,0,3.52,1h5.1l.78,5a18.13,18.13,0,0,1-2.73.57c-1,.14-2,.25-3.05.32s-1.83.11-2.45.11a9,9,0,0,1-6.74-2.41q-2.34-2.41-2.34-7v-36Z" style="fill:#e81d30"/><path d="M474.6,34.51q8,0,11.6,2.88t3.58,8.48c.05,3.12-.63,5.53-2,7.23s-3.65,2.56-6.78,2.56H461v-4.9h18.23c1.56,0,2.58-.49,3.05-1.49a7.86,7.86,0,0,0,.71-3.4c-.05-2.13-.67-3.63-1.88-4.51s-3.28-1.31-6.21-1.31a11.92,11.92,0,0,0-5.67,1,5.87,5.87,0,0,0-2.88,3.69,26.2,26.2,0,0,0-.81,7.38,24.54,24.54,0,0,0,1,8.12,6.42,6.42,0,0,0,3.33,3.87A14.81,14.81,0,0,0,476,65.17c1.79,0,3.82-.09,6.06-.25s4.3-.37,6.14-.61l.71,4.47A20.13,20.13,0,0,1,484.82,70a46.47,46.47,0,0,1-5,.68q-2.55.21-4.68.21A22,22,0,0,1,465.38,69a11.2,11.2,0,0,1-5.4-5.86,27.38,27.38,0,0,1-1.7-10.53A28.09,28.09,0,0,1,460,41.82a10.48,10.48,0,0,1,5.32-5.64A22.37,22.37,0,0,1,474.6,34.51Z" style="fill:#e81d30"/><path d="M503.76,35.37l.85,6.67.64,1V70h-6.81V35.37Zm17-.86L520,40.9h-2.2A16.71,16.71,0,0,0,511.88,42q-3,1.13-7.34,3.26l-.5-4.19a33.64,33.64,0,0,1,7.63-4.86,18.2,18.2,0,0,1,7.49-1.74Z" style="fill:#e81d30"/><rect x="36.52" width="68.23" height="68.23" style="fill:#f5a996"/><rect x="36.28" y="0.17" width="68.23" height="68.23" style="fill:#f5a995"/><rect x="36.05" y="0.34" width="68.23" height="68.23" style="fill:#f5a894"/><rect x="35.81" y="0.51" width="68.23" height="68.23" style="fill:#f5a793"/><rect x="35.57" y="0.68" width="68.23" height="68.23" style="fill:#f5a692"/><rect x="35.33" y="0.85" width="68.23" height="68.23" style="fill:#f5a591"/><rect x="35.09" y="1.03" width="68.23" height="68.23" style="fill:#f5a591"/><rect x="34.85" y="1.2" width="68.23" height="68.23" style="fill:#f5a490"/><rect x="34.61" y="1.37" width="68.23" height="68.23" style="fill:#f5a38f"/><rect x="34.37" y="1.54" width="68.23" height="68.23" style="fill:#f5a28e"/><rect x="34.14" y="1.71" width="68.23" height="68.23" style="fill:#f5a28d"/><rect x="33.9" y="1.88" width="68.23" height="68.23" style="fill:#f4a18c"/><rect x="33.66" y="2.05" width="68.23" height="68.23" style="fill:#f4a08c"/><rect x="33.42" y="2.22" width="68.23" height="68.23" style="fill:#f49f8b"/><rect x="33.18" y="2.39" width="68.23" height="68.23" style="fill:#f49f8a"/><rect x="32.94" y="2.56" width="68.23" height="68.23" style="fill:#f49e89"/><rect x="32.7" y="2.73" width="68.23" height="68.23" style="fill:#f49d88"/><rect x="32.47" y="2.91" width="68.23" height="68.23" style="fill:#f49c88"/><rect x="32.23" y="3.08" width="68.23" height="68.23" style="fill:#f49c87"/><rect x="31.99" y="3.25" width="68.23" height="68.23" style="fill:#f49b86"/><rect x="31.75" y="3.42" width="68.23" height="68.23" style="fill:#f49a85"/><rect x="31.51" y="3.59" width="68.23" height="68.23" style="fill:#f39984"/><rect x="31.27" y="3.76" width="68.23" height="68.23" style="fill:#f39984"/><rect x="31.03" y="3.93" width="68.23" height="68.23" style="fill:#f39883"/><rect x="30.79" y="4.1" width="68.23" height="68.23" style="fill:#f39782"/><rect x="30.56" y="4.27" width="68.23" height="68.23" style="fill:#f39681"/><rect x="30.32" y="4.44" width="68.23" height="68.23" style="fill:#f39680"/><rect x="30.08" y="4.62" width="68.23" height="68.23" style="fill:#f39580"/><rect x="29.84" y="4.79" width="68.23" height="68.23" style="fill:#f3947f"/><rect x="29.6" y="4.96" width="68.23" height="68.23" style="fill:#f3937e"/><rect x="29.36" y="5.13" width="68.23" height="68.23" style="fill:#f3937d"/><rect x="29.12" y="5.3" width="68.23" height="68.23" style="fill:#f3927d"/><rect x="28.88" y="5.47" width="68.23" height="68.23" style="fill:#f2917c"/><rect x="28.65" y="5.64" width="68.23" height="68.23" style="fill:#f2907b"/><rect x="28.41" y="5.81" width="68.23" height="68.23" style="fill:#f2907a"/><rect x="28.17" y="5.98" width="68.23" height="68.23" style="fill:#f28f7a"/><rect x="27.93" y="6.15" width="68.23" height="68.23" style="fill:#f28e79"/><rect x="27.69" y="6.32" width="68.23" height="68.23" style="fill:#f28e78"/><rect x="27.45" y="6.5" width="68.23" height="68.23" style="fill:#f28d78"/><rect x="27.21" y="6.67" width="68.23" height="68.23" style="fill:#f28c77"/><rect x="26.97" y="6.84" width="68.23" height="68.23" style="fill:#f28b76"/><rect x="26.74" y="7.01" width="68.23" height="68.23" style="fill:#f28b75"/><rect x="26.5" y="7.18" width="68.23" height="68.23" style="fill:#f28a75"/><rect x="26.26" y="7.35" width="68.23" height="68.23" style="fill:#f18974"/><rect x="26.02" y="7.52" width="68.23" height="68.23" style="fill:#f18873"/><rect x="25.78" y="7.69" width="68.23" height="68.23" style="fill:#f18873"/><rect x="25.54" y="7.86" width="68.23" height="68.23" style="fill:#f18772"/><rect x="25.3" y="8.03" width="68.23" height="68.23" style="fill:#f18671"/><rect x="25.07" y="8.2" width="68.23" height="68.23" style="fill:#f18570"/><rect x="24.83" y="8.38" width="68.23" height="68.23" style="fill:#f18570"/><rect x="24.59" y="8.55" width="68.23" height="68.23" style="fill:#f1846f"/><rect x="24.35" y="8.72" width="68.23" height="68.23" style="fill:#f1836e"/><rect x="24.11" y="8.89" width="68.23" height="68.23" style="fill:#f1836e"/><rect x="23.87" y="9.06" width="68.23" height="68.23" style="fill:#f1826d"/><rect x="23.63" y="9.23" width="68.23" height="68.23" style="fill:#f0816c"/><rect x="23.39" y="9.4" width="68.23" height="68.23" style="fill:#f0806c"/><rect x="23.16" y="9.57" width="68.23" height="68.23" style="fill:#f0806b"/><rect x="22.92" y="9.74" width="68.23" height="68.23" style="fill:#f07f6a"/><rect x="22.68" y="9.91" width="68.23" height="68.23" style="fill:#f07e6a"/><rect x="22.44" y="10.08" width="68.23" height="68.23" style="fill:#f07d69"/><rect x="22.2" y="10.26" width="68.23" height="68.23" style="fill:#f07d68"/><rect x="21.96" y="10.43" width="68.23" height="68.23" style="fill:#f07c68"/><rect x="21.72" y="10.6" width="68.23" height="68.23" style="fill:#f07b67"/><rect x="21.48" y="10.77" width="68.23" height="68.23" style="fill:#f07a66"/><rect x="21.25" y="10.94" width="68.23" height="68.23" style="fill:#f07a66"/><rect x="21.01" y="11.11" width="68.23" height="68.23" style="fill:#ef7965"/><rect x="20.77" y="11.28" width="68.23" height="68.23" style="fill:#ef7864"/><rect x="20.53" y="11.45" width="68.23" height="68.23" style="fill:#ef7764"/><rect x="20.29" y="11.62" width="68.23" height="68.23" style="fill:#ef7763"/><rect x="20.05" y="11.79" width="68.23" height="68.23" style="fill:#ef7662"/><rect x="19.81" y="11.97" width="68.23" height="68.23" style="fill:#ef7562"/><rect x="19.57" y="12.14" width="68.23" height="68.23" style="fill:#ef7461"/><rect x="19.34" y="12.31" width="68.23" height="68.23" style="fill:#ef7460"/><rect x="19.1" y="12.48" width="68.23" height="68.23" style="fill:#ef7360"/><rect x="18.86" y="12.65" width="68.23" height="68.23" style="fill:#ef725f"/><rect x="18.62" y="12.82" width="68.23" height="68.23" style="fill:#ef715e"/><rect x="18.38" y="12.99" width="68.23" height="68.23" style="fill:#ef705e"/><rect x="18.14" y="13.16" width="68.23" height="68.23" style="fill:#ee705d"/><rect x="17.9" y="13.33" width="68.23" height="68.23" style="fill:#ee6f5c"/><rect x="17.66" y="13.5" width="68.23" height="68.23" style="fill:#ee6e5c"/><rect x="17.43" y="13.67" width="68.23" height="68.23" style="fill:#ee6d5b"/><rect x="17.19" y="13.85" width="68.23" height="68.23" style="fill:#ee6c5a"/><rect x="16.95" y="14.02" width="68.23" height="68.23" style="fill:#ee6c5a"/><rect x="16.71" y="14.19" width="68.23" height="68.23" style="fill:#ee6b59"/><rect x="16.47" y="14.36" width="68.23" height="68.23" style="fill:#ee6a58"/><rect x="16.23" y="14.53" width="68.23" height="68.23" style="fill:#ee6958"/><rect x="15.99" y="14.7" width="68.23" height="68.23" style="fill:#ee6857"/><rect x="15.76" y="14.87" width="68.23" height="68.23" style="fill:#ee6756"/><rect x="15.52" y="15.04" width="68.23" height="68.23" style="fill:#ed6656"/><rect x="15.28" y="15.21" width="68.23" height="68.23" style="fill:#ed6655"/><rect x="15.04" y="15.38" width="68.23" height="68.23" style="fill:#ed6554"/><rect x="14.8" y="15.55" width="68.23" height="68.23" style="fill:#ed6454"/><rect x="14.56" y="15.73" width="68.23" height="68.23" style="fill:#ed6353"/><rect x="14.32" y="15.9" width="68.23" height="68.23" style="fill:#ed6253"/><rect x="14.08" y="16.07" width="68.23" height="68.23" style="fill:#ed6152"/><rect x="13.85" y="16.24" width="68.23" height="68.23" style="fill:#ed6051"/><rect x="13.61" y="16.41" width="68.23" height="68.23" style="fill:#ed6051"/><rect x="13.37" y="16.58" width="68.23" height="68.23" style="fill:#ed5f50"/><rect x="13.13" y="16.75" width="68.23" height="68.23" style="fill:#ed5e4f"/><rect x="12.89" y="16.92" width="68.23" height="68.23" style="fill:#ed5d4f"/><rect x="12.65" y="17.09" width="68.23" height="68.23" style="fill:#ec5c4e"/><rect x="12.41" y="17.26" width="68.23" height="68.23" style="fill:#ec5b4d"/><rect x="12.17" y="17.43" width="68.23" height="68.23" style="fill:#ec5a4d"/><rect x="11.94" y="17.61" width="68.23" height="68.23" style="fill:#ec594c"/><rect x="11.7" y="17.78" width="68.23" height="68.23" style="fill:#ec584b"/><rect x="11.46" y="17.95" width="68.23" height="68.23" style="fill:#ec584b"/><rect x="11.22" y="18.12" width="68.23" height="68.23" style="fill:#ec574a"/><rect x="10.98" y="18.29" width="68.23" height="68.23" style="fill:#ec564a"/><rect x="10.74" y="18.46" width="68.23" height="68.23" style="fill:#ec5549"/><rect x="10.5" y="18.63" width="68.23" height="68.23" style="fill:#ec5448"/><rect x="10.26" y="18.8" width="68.23" height="68.23" style="fill:#ec5348"/><rect x="10.03" y="18.97" width="68.23" height="68.23" style="fill:#ec5247"/><rect x="9.79" y="19.14" width="68.23" height="68.23" style="fill:#ec5146"/><rect x="9.55" y="19.32" width="68.23" height="68.23" style="fill:#eb5046"/><rect x="9.31" y="19.49" width="68.23" height="68.23" style="fill:#eb4f45"/><rect x="9.07" y="19.66" width="68.23" height="68.23" style="fill:#eb4e44"/><rect x="8.83" y="19.83" width="68.23" height="68.23" style="fill:#eb4d44"/><rect x="8.59" y="20" width="68.23" height="68.23" style="fill:#eb4c43"/><rect x="8.36" y="20.17" width="68.23" height="68.23" style="fill:#eb4b43"/><rect x="8.12" y="20.34" width="68.23" height="68.23" style="fill:#eb4a42"/><rect x="7.88" y="20.51" width="68.23" height="68.23" style="fill:#eb4941"/><rect x="7.64" y="20.68" width="68.23" height="68.23" style="fill:#eb4741"/><rect x="7.4" y="20.85" width="68.23" height="68.23" style="fill:#eb4640"/><rect x="7.16" y="21.02" width="68.23" height="68.23" style="fill:#eb4540"/><rect x="6.92" y="21.2" width="68.23" height="68.23" style="fill:#ea443f"/><rect x="6.68" y="21.37" width="68.23" height="68.23" style="fill:#ea433e"/><rect x="6.45" y="21.54" width="68.23" height="68.23" style="fill:#ea423e"/><rect x="6.21" y="21.71" width="68.23" height="68.23" style="fill:#ea413d"/><rect x="5.97" y="21.88" width="68.23" height="68.23" style="fill:#ea403d"/><rect x="5.73" y="22.05" width="68.23" height="68.23" style="fill:#ea3f3c"/><rect x="5.49" y="22.22" width="68.23" height="68.23" style="fill:#ea3e3c"/><rect x="5.25" y="22.39" width="68.23" height="68.23" style="fill:#ea3d3b"/><rect x="5.01" y="22.56" width="68.23" height="68.23" style="fill:#ea3c3b"/><rect x="4.77" y="22.73" width="68.23" height="68.23" style="fill:#ea3b3a"/><rect x="4.54" y="22.9" width="68.23" height="68.23" style="fill:#ea3939"/><rect x="4.3" y="23.08" width="68.23" height="68.23" style="fill:#ea3839"/><rect x="4.06" y="23.25" width="68.23" height="68.23" style="fill:#ea3738"/><rect x="3.82" y="23.42" width="68.23" height="68.23" style="fill:#ea3638"/><rect x="3.58" y="23.59" width="68.23" height="68.23" style="fill:#e93437"/><rect x="3.34" y="23.76" width="68.23" height="68.23" style="fill:#e93337"/><rect x="3.1" y="23.93" width="68.23" height="68.23" style="fill:#e93236"/><rect x="2.86" y="24.1" width="68.23" height="68.23" style="fill:#e93036"/><rect x="2.63" y="24.27" width="68.23" height="68.23" style="fill:#e92f35"/><rect x="2.39" y="24.44" width="68.23" height="68.23" style="fill:#e92d35"/><rect x="2.15" y="24.61" width="68.23" height="68.23" style="fill:#e92c34"/><rect x="1.91" y="24.79" width="68.23" height="68.23" style="fill:#e92a34"/><rect x="1.67" y="24.96" width="68.23" height="68.23" style="fill:#e92933"/><rect x="1.43" y="25.13" width="68.23" height="68.23" style="fill:#e92733"/><rect x="1.19" y="25.3" width="68.23" height="68.23" style="fill:#e92632"/><rect x="0.95" y="25.47" width="68.23" height="68.23" style="fill:#e92432"/><rect x="0.72" y="25.64" width="68.23" height="68.23" style="fill:#e82231"/><rect x="0.48" y="25.81" width="68.23" height="68.23" style="fill:#e82131"/><rect x="0.24" y="25.98" width="68.23" height="68.23" style="fill:#e81f31"/><rect y="26.15" width="68.23" height="68.23" style="fill:#e81d30"/><path d="M36.83,32.3q7.56,0,11.84,1.56a10.4,10.4,0,0,1,6.12,5.38q1.83,3.81,1.83,10.67T54.87,60.58a10,10,0,0,1-5.73,5.34,31,31,0,0,1-10.75,1.52c-2.39,0-4.72-.11-7-.32S27,66.66,25,66.35s-3.66-.64-5.06-1a11.72,11.72,0,0,1-2.88-1l.23-5.92H36.6a14.39,14.39,0,0,0,4.87-.78A4.33,4.33,0,0,0,44,55.13a14.76,14.76,0,0,0,.74-5.22,15,15,0,0,0-.74-5.3A4.51,4.51,0,0,0,41.47,42a12.94,12.94,0,0,0-4.87-.74q-7.17,0-12.31.08c-3.42,0-5.74.16-6.93.31l-1.17-8.57q3.27-.39,6.16-.54c1.92-.11,4-.17,6.27-.2S33.61,32.3,36.83,32.3Zm-8.72.78V86.83H16.19V33.08Z" style="fill:#f9f9fa"/></g></g></svg>