<svg xmlns="http://www.w3.org/2000/svg" viewBox="0 0 448.63 92.22"><g id="Layer_2" data-name="Layer 2"><g id="Layer_1-2" data-name="Layer 1"><path d="M103.54,63.34V27.65h18.4a13.7,13.7,0,0,1,7.23,1.75,10.75,10.75,0,0,1,4.24,4.74,15.67,15.67,0,0,1,1.38,6.65,13.74,13.74,0,0,1-1.6,6.7,11.64,11.64,0,0,1-4.55,4.6,13.82,13.82,0,0,1-6.92,1.66H114v9.59ZM114,45.77h5.37A4.53,4.53,0,0,0,123,44.39a5.3,5.3,0,0,0,1.19-3.6,5.91,5.91,0,0,0-1.1-3.77,4.16,4.16,0,0,0-3.44-1.39H114Z" style="fill:#2f499f"/><path d="M144.66,63.89A11.93,11.93,0,0,1,140,63a7.54,7.54,0,0,1-3.41-2.77,8.35,8.35,0,0,1-1.27-4.77A7.9,7.9,0,0,1,138.12,49c1.84-1.54,4.63-2.3,8.36-2.3h6.82v-.5A2.42,2.42,0,0,0,152,44a9.83,9.83,0,0,0-4.48-.73,30.09,30.09,0,0,0-9,1.39V38.35a26.44,26.44,0,0,1,5-1.3,35.09,35.09,0,0,1,6.09-.53q6.27,0,9.92,2.55t3.66,8.09V63.34h-9.09l-.5-2.11a10,10,0,0,1-3.57,1.94A17.47,17.47,0,0,1,144.66,63.89Zm3.54-6.09a6.92,6.92,0,0,0,3-.61,7.13,7.13,0,0,0,2.08-1.5V52.42h-5q-3.44,0-3.44,2.72T148.2,57.8Z" style="fill:#2f499f"/><path d="M167.93,63.34V37.07h10l.27,2.11a19.91,19.91,0,0,1,4.1-1.72,22.13,22.13,0,0,1,5-.94v7.76c-1,.07-2,.2-3.13.39a32.57,32.57,0,0,0-3.27.69,16,16,0,0,0-2.64.91V63.34Z" style="fill:#2f499f"/><path d="M201.56,63.89c-3.51,0-6.06-.88-7.65-2.66a10.37,10.37,0,0,1-2.38-7.2V44.78H188.1V37.07h3.43V31.7L202,29.21v7.86h6l-.39,7.71H202v8.47a2.9,2.9,0,0,0,.83,2.36,3.92,3.92,0,0,0,2.55.69,10.29,10.29,0,0,0,3.27-.55v6.92A18.21,18.21,0,0,1,201.56,63.89Z" style="fill:#2f499f"/><path d="M217.68,73.09a23.32,23.32,0,0,1-3.74-.25,16.64,16.64,0,0,1-3-.8V65a8.45,8.45,0,0,0,1.69.44,13.09,13.09,0,0,0,1.69.11,7.26,7.26,0,0,0,3.24-.55,6.17,6.17,0,0,0,2.08-2.22L207.77,37.07h10.91l6.15,15.46,6-15.46h10.86L232,60.84a26.87,26.87,0,0,1-5.57,8.93A11.78,11.78,0,0,1,217.68,73.09Z" style="fill:#2f499f"/><path d="M245.11,63.34V27.65h7.48v15h15.57v-15h7.48V63.34h-7.48v-15H252.59v15Z" style="fill:#2f499f"/><path d="M295.09,63.89q-7.36,0-10.8-3.57t-3.44-10.11q0-6.54,3.46-10.12t10.78-3.57q7.37,0,10.83,3.57t3.47,10.12q0,6.54-3.44,10.11T295.09,63.89Zm0-6.37q3.6,0,5.15-1.63c1-1.09,1.55-3,1.55-5.68s-.51-4.59-1.55-5.68-2.75-1.64-5.15-1.64-4.06.55-5.1,1.64-1.55,3-1.55,5.68S289,54.8,290,55.89,292.73,57.52,295.09,57.52Z" style="fill:#2f499f"/><path d="M324.29,63.89A9.89,9.89,0,0,1,317,61.26c-1.76-1.75-2.63-4.33-2.63-7.73V37.07h7.48V53.36a5.08,5.08,0,0,0,1.27,3.86,5.45,5.45,0,0,0,3.82,1.19,8.2,8.2,0,0,0,3.58-.78,10,10,0,0,0,2.8-1.94V37.07h7.48V63.34h-6.93l-.28-2.5a14.26,14.26,0,0,1-3.9,2.19A14.82,14.82,0,0,1,324.29,63.89Z" style="fill:#2f499f"/><path d="M356.37,63.89a37,37,0,0,1-5.59-.41,21.74,21.74,0,0,1-4.27-1v-6.2a22.09,22.09,0,0,0,4.38,1.19,27.5,27.5,0,0,0,4.48.41,15.88,15.88,0,0,0,3.91-.33,1.43,1.43,0,0,0,1.14-1.5c0-.88-.59-1.53-1.75-1.93s-2.89-1-5.18-1.72A16,16,0,0,1,348,49.43a6.45,6.45,0,0,1-1.94-5.1,6.76,6.76,0,0,1,2.74-5.79c1.83-1.34,4.78-2,8.84-2a28,28,0,0,1,4.6.36,24.9,24.9,0,0,1,3.66.86v6.15a13.75,13.75,0,0,0-3.44-1.08,19.76,19.76,0,0,0-3.6-.36,17.46,17.46,0,0,0-3.8.33q-1.41.33-1.41,1.44c0,.82.51,1.39,1.52,1.72l4.74,1.5a20.14,20.14,0,0,1,4.93,2.05,6.32,6.32,0,0,1,2.5,2.63,8.84,8.84,0,0,1,.72,3.79Q368,63.89,356.37,63.89Z" style="fill:#2f499f"/><path d="M375.65,63.34V42.62h-3.93l.66-5.55h10.75V63.34ZM375,32.25V26.38h8.15v5.87Z" style="fill:#2f499f"/><path d="M389.5,63.34V37.07h6.93l.28,2.5a16,16,0,0,1,4.07-2.14,15,15,0,0,1,5.18-.91q5.21,0,7.59,2.44c1.59,1.62,2.39,4.14,2.39,7.53V63.34h-7.48V46.88a5.32,5.32,0,0,0-1.09-3.77c-.72-.73-2.06-1.1-4-1.1a8.46,8.46,0,0,0-3.47.77,9.62,9.62,0,0,0-2.9,1.94V63.34Z" style="fill:#2f499f"/><path d="M433.11,73.09a47.71,47.71,0,0,1-6-.39,26.51,26.51,0,0,1-5.18-1.11V66a30,30,0,0,0,5.21,1.13,40.32,40.32,0,0,0,5.59.42,26,26,0,0,0,5.55-.42c1.14-.27,1.71-.76,1.71-1.46a1.22,1.22,0,0,0-.74-1.22,9.34,9.34,0,0,0-3.14-.34H429q-7.05,0-7-5.2a5.12,5.12,0,0,1,.89-2.94,5.88,5.88,0,0,1,2.82-2.11,7.89,7.89,0,0,1-4.49-7.64c0-3.4,1.06-5.87,3.16-7.4s5.23-2.3,9.37-2.3a23.92,23.92,0,0,1,2.79.19c1,.13,1.79.25,2.3.36h9.87l-.17,4.71H444.3A5.85,5.85,0,0,1,446,46.27a8.47,8.47,0,0,1-2.55,6.46c-1.7,1.6-4.21,2.41-7.53,2.41a15.13,15.13,0,0,1-1.69-.09c-.54,0-1.08-.11-1.64-.19a9.15,9.15,0,0,0-2.79.78,1.68,1.68,0,0,0-1.14,1.49c0,.85.76,1.28,2.27,1.28h7.43a9.36,9.36,0,0,1,6.15,1.8,6.42,6.42,0,0,1,2.16,5.23,6.17,6.17,0,0,1-3.49,5.77Q439.71,73.08,433.11,73.09Zm.61-22.16c2.22,0,3.76-.38,4.63-1.14a4.89,4.89,0,0,0,1.3-3.85,5.15,5.15,0,0,0-1.3-3.93c-.87-.82-2.41-1.22-4.63-1.22s-3.62.39-4.54,1.19a4.94,4.94,0,0,0-1.39,4,5,5,0,0,0,1.3,3.77C430,50.52,431.51,50.93,433.72,50.93Z" style="fill:#2f499f"/><path d="M43.1,0A46.12,46.12,0,0,0,.2,29.18H12.43a12.71,12.71,0,0,1,6.75,1.63,10.1,10.1,0,0,1,4,4.42,14.7,14.7,0,0,1,1.29,6.22,12.82,12.82,0,0,1-1.5,6.26A10.85,10.85,0,0,1,18.69,52a12.86,12.86,0,0,1-6.47,1.55H5v9H0A46.11,46.11,0,1,0,43.1,0ZM58,62.52H48.26V50.09H36.76V62.52H27V29.18h9.73V41.6h11.5V29.18H58Z" style="fill:#2f499f"/><path d="M13.39,44.81a5,5,0,0,0,1.11-3.36,5.47,5.47,0,0,0-1-3.52,3.85,3.85,0,0,0-3.21-1.3H5v9.48h5A4.24,4.24,0,0,0,13.39,44.81Z" style="fill:#2f499f"/></g></g></svg>